<svg width="22" height="20" viewBox="0 0 22 20" fill="none" xmlns="http://www.w3.org/2000/svg">
<path d="M12.5 19V11.5C12.5 11.0858 12.8358 10.75 13.25 10.75H16.25C16.6642 10.75 17 11.0858 17 11.5V19M12.5 19H1.36088M12.5 19H17M17 19H20.6391M19.25 19V7.34876M2.75 19V7.349M2.75 7.349C3.89729 8.01214 5.38977 7.85293 6.37132 6.87139C6.41594 6.82677 6.45886 6.78109 6.50008 6.73444C7.04979 7.3572 7.85402 7.74998 8.75 7.74998C9.64602 7.74998 10.4503 7.35717 11 6.73435C11.5497 7.35717 12.354 7.74998 13.25 7.74998C14.1459 7.74998 14.9501 7.35725 15.4998 6.73456C15.541 6.78114 15.5838 6.82675 15.6284 6.8713C16.61 7.85293 18.1027 8.01208 19.25 7.34876M2.75 7.349C2.52788 7.22062 2.31871 7.06142 2.12868 6.87139C0.957107 5.69982 0.957107 3.80032 2.12868 2.62875L3.31797 1.43946C3.59927 1.15816 3.9808 1.00012 4.37863 1.00012H17.6212C18.019 1.00012 18.4005 1.15816 18.6818 1.43946L19.871 2.62866C21.0426 3.80023 21.0426 5.69973 19.871 6.8713C19.6811 7.06125 19.472 7.2204 19.25 7.34876M5.75 16H9.5C9.91421 16 10.25 15.6642 10.25 15.25V11.5C10.25 11.0858 9.91421 10.75 9.5 10.75H5.75C5.33579 10.75 5 11.0858 5 11.5V15.25C5 15.6642 5.33579 16 5.75 16Z" stroke="#0F172A" stroke-width="1.5" stroke-linecap="round" stroke-linejoin="round"/>
</svg>
